STARTFONT 2.1
COMMENT CVS:Version $Id 1.6
COMMENT
COMMENT (C) CENA/J.L. Vinot, 2002, CENA (Centre d'Etudes de la Navigation Aťrienne)
COMMENT This software is free software; you can redistribute it and/or modify it 
COMMENT under the terms of the GNU Lesser General Public License as published by the Free Software Foundation: 
COMMENT either version 2 of the License, or (at your option) any later version.
COMMENT 
COMMENT This software is distributed in the hope that it will be useful, but WITHOUT ANY WARRANTY; 
COMMENT without even the implied warranty of MERCHANTABILITY or FITNESS FOR A PARTICULAR PURPOSE.  
COMMENT See the GNU Lesser General Public License for more details.
COMMENT 
COMMENT You should have received a copy of the GNU Lesser General Public License along with this software; 
COMMENT if not, write to the Free Software Foundation, Inc., 59 Temple Place - Suite 330, Boston, MA  02111-1307, USA.
COMMENT Please refer to http://www.gnu.org/copyleft/gpl.html
COMMENT 
COMMENT This font has been originally designed by CENA/France for the specific needs of Air Traffic Control. 
COMMENT For example, it must offer good legibility and avoid any confusion between character shapes. 
COMMENT CENA would like to preserve its qualities. If you have any specific need, you can modify this font, 
COMMENT but we would like you to change its name to avoid any confusion between your new font and the original one designed by CENA.
COMMENT Note however, that as implied in the LGPL licence, you must credit CENA for the original work. 
COMMENT Finally, CENA would appreciate it if you send back any enhancement or extension made to the original work. 
COMMENT This statement must be fully included with any further distribution of the font.
COMMENT 
COMMENT to contact us: email to:  pii-contact@cena.fr
COMMENT write to: CENA, 7 avenue Edouard Belin, 31400 Toulouse, France 
FONT -CenaPii-Bleriot Radar-SemiBold-R-Normal--16-160-75-75-P-97-ISO8859-15
SIZE 16 75 75

STARTCHAR gcid14
ENCODING 20
SWIDTH 600 0
DWIDTH 10 0
BBX 8 2 1 5
BITMAP
FF
FF
ENDCHAR
STARTCHAR gcid15
ENCODING 21
SWIDTH 720 0
DWIDTH 12 0
BBX 10 10 1 0
BITMAP
C000
E000
7000
3840
1CC0
0FC0
07C0
07C0
0FC0
1FC0
ENDCHAR
STARTCHAR gcid16
ENCODING 22
SWIDTH 720 0
DWIDTH 12 0
BBX 10 10 1 0
BITMAP
1FC0
0FC0
07C0
07C0
0FC0
1CC0
3840
7000
E000
C000
ENDCHAR
STARTCHAR space
ENCODING 32
SWIDTH 660 0
DWIDTH 11 0
BBX 0 0 0 0
BITMAP
ENDCHAR
STARTCHAR exclam
ENCODING 33
SWIDTH 300 0
DWIDTH 5 0
BBX 2 11 2 0
BITMAP
C0
C0
C0
C0
C0
C0
C0
C0
00
C0
C0
ENDCHAR
STARTCHAR quotedbl
ENCODING 34
SWIDTH 420 0
DWIDTH 7 0
BBX 5 4 1 7
BITMAP
D8
D8
D8
D8
ENDCHAR
STARTCHAR numbersign
ENCODING 35
SWIDTH 840 0
DWIDTH 14 0
BBX 12 11 1 0
BITMAP
0CC0
0CC0
3FF0
7FE0
1980
1980
1980
7FE0
FFC0
3300
3300
ENDCHAR
STARTCHAR dollar
ENCODING 36
SWIDTH 600 0
DWIDTH 10 0
BBX 8 15 1 -2
BITMAP
08
08
3E
7F
6B
78
3C
1E
0F
4B
EB
7E
3C
08
08
ENDCHAR
STARTCHAR percent
ENCODING 37
SWIDTH 840 0
DWIDTH 14 0
BBX 12 11 1 0
BITMAP
7180
F980
DB00
FB00
7600
0600
0CE0
0DF0
19B0
19F0
30E0
ENDCHAR
STARTCHAR ampersand
ENCODING 38
SWIDTH 780 0
DWIDTH 13 0
BBX 11 11 1 0
BITMAP
1E00
3700
3300
3F00
3E00
7C00
EE60
C7E0
C3C0
FFC0
7CE0
ENDCHAR
STARTCHAR quotesingle
ENCODING 39
SWIDTH 240 0
DWIDTH 4 0
BBX 2 4 1 7
BITMAP
C0
C0
C0
C0
ENDCHAR
STARTCHAR parenleft
ENCODING 40
SWIDTH 480 0
DWIDTH 8 0
BBX 5 15 3 -3
BITMAP
18
30
60
60
C0
C0
C0
C0
C0
C0
C0
60
60
30
18
ENDCHAR
STARTCHAR parenright
ENCODING 41
SWIDTH 480 0
DWIDTH 8 0
BBX 5 15 0 -3
BITMAP
C0
60
30
30
18
18
18
18
18
18
18
30
30
60
C0
ENDCHAR
STARTCHAR asterisk
ENCODING 42
SWIDTH 600 0
DWIDTH 10 0
BBX 8 7 1 4
BITMAP
18
DB
7E
3C
7E
DB
18
ENDCHAR
STARTCHAR plus
ENCODING 43
SWIDTH 780 0
DWIDTH 13 0
BBX 8 8 2 0
BITMAP
18
18
18
FF
FF
18
18
18
ENDCHAR
STARTCHAR comma
ENCODING 44
SWIDTH 420 0
DWIDTH 7 0
BBX 3 5 2 -2
BITMAP
40
E0
C0
C0
80
ENDCHAR
STARTCHAR hyphen
ENCODING 45
SWIDTH 540 0
DWIDTH 9 0
BBX 5 2 2 3
BITMAP
F8
F8
ENDCHAR
STARTCHAR period
ENCODING 46
SWIDTH 360 0
DWIDTH 6 0
BBX 3 3 1 0
BITMAP
40
E0
40
ENDCHAR
STARTCHAR slash
ENCODING 47
SWIDTH 480 0
DWIDTH 8 0
BBX 8 13 0 -2
BITMAP
03
03
06
06
0C
0C
18
18
30
30
60
60
C0
ENDCHAR
STARTCHAR zero
ENCODING 48
SWIDTH 660 0
DWIDTH 11 0
BBX 9 11 1 0
BITMAP
3E00
7F00
6300
C580
CD80
C980
D980
D180
6300
7F00
3E00
ENDCHAR
STARTCHAR one
ENCODING 49
SWIDTH 600 0
DWIDTH 10 0
BBX 6 11 1 0
BITMAP
0C
1C
3C
7C
EC
CC
0C
0C
0C
0C
0C
ENDCHAR
STARTCHAR two
ENCODING 50
SWIDTH 660 0
DWIDTH 11 0
BBX 9 11 1 0
BITMAP
3C00
7E00
E700
C300
0600
0E00
1C00
3800
7000
FF80
FF80
ENDCHAR
STARTCHAR three
ENCODING 51
SWIDTH 660 0
DWIDTH 11 0
BBX 9 11 1 0
BITMAP
3F80
7F00
0600
0C00
1E00
0F00
0380
0180
E380
7F00
3E00
ENDCHAR
STARTCHAR four
ENCODING 52
SWIDTH 660 0
DWIDTH 11 0
BBX 10 11 1 0
BITMAP
0E00
0C00
1C00
1800
3100
7300
6300
FFC0
FF80
0300
0300
ENDCHAR
STARTCHAR five
ENCODING 53
SWIDTH 660 0
DWIDTH 11 0
BBX 9 11 1 0
BITMAP
7F00
7F00
6000
6A00
7F00
7380
0180
0180
E380
7F00
3E00
ENDCHAR
STARTCHAR six
ENCODING 54
SWIDTH 660 0
DWIDTH 11 0
BBX 9 11 1 0
BITMAP
0E00
1C00
3800
7000
6F00
FF80
E180
C180
E380
7F00
3E00
ENDCHAR
STARTCHAR seven
ENCODING 55
SWIDTH 660 0
DWIDTH 11 0
BBX 10 11 1 0
BITMAP
7FC0
FF80
0300
0700
0600
0C00
1C00
1800
3800
3000
3000
ENDCHAR
STARTCHAR eight
ENCODING 56
SWIDTH 660 0
DWIDTH 11 0
BBX 9 11 1 0
BITMAP
3E00
7700
6300
7300
3E00
7F00
E380
C180
E180
7F00
3E00
ENDCHAR
STARTCHAR nine
ENCODING 57
SWIDTH 660 0
DWIDTH 11 0
BBX 9 11 1 0
BITMAP
3E00
7F00
E380
C180
C380
FF80
7B00
0700
0E00
1C00
3800
ENDCHAR
STARTCHAR colon
ENCODING 58
SWIDTH 420 0
DWIDTH 7 0
BBX 3 8 2 0
BITMAP
40
E0
40
00
00
40
E0
40
ENDCHAR
STARTCHAR semicolon
ENCODING 59
SWIDTH 420 0
DWIDTH 7 0
BBX 3 10 2 -2
BITMAP
40
E0
40
00
00
40
E0
C0
C0
80
ENDCHAR
STARTCHAR less
ENCODING 60
SWIDTH 540 0
DWIDTH 9 0
BBX 5 8 2 0
BITMAP
18
30
60
C0
C0
60
30
18
ENDCHAR
STARTCHAR equal
ENCODING 61
SWIDTH 600 0
DWIDTH 10 0
BBX 6 6 2 1
BITMAP
FC
FC
00
00
FC
FC
ENDCHAR
STARTCHAR greater
ENCODING 62
SWIDTH 540 0
DWIDTH 9 0
BBX 5 8 2 0
BITMAP
C0
60
30
18
18
30
60
C0
ENDCHAR
STARTCHAR question
ENCODING 63
SWIDTH 540 0
DWIDTH 9 0
BBX 7 11 2 0
BITMAP
7C
FE
C6
06
0C
18
30
30
00
30
30
ENDCHAR
STARTCHAR at
ENCODING 64
SWIDTH 1020 0
DWIDTH 17 0
BBX 15 14 1 -2
BITMAP
07E0
1F78
381C
600C
63E6
C7E6
CE66
CC66
CCE6
CEFC
67B8
6000
3818
0FE0
ENDCHAR
STARTCHAR A
ENCODING 65
SWIDTH 660 0
DWIDTH 11 0
BBX 10 11 0 0
BITMAP
0C00
1C00
1E00
1E00
3300
3300
6180
7F80
7FC0
C0C0
C0C0
ENDCHAR
STARTCHAR B
ENCODING 66
SWIDTH 600 0
DWIDTH 10 0
BBX 8 11 1 0
BITMAP
FC
FE
C6
C6
FC
FE
C7
C3
C7
FE
FC
ENDCHAR
STARTCHAR C
ENCODING 67
SWIDTH 660 0
DWIDTH 11 0
BBX 9 11 1 0
BITMAP
0E00
3F80
7100
6000
C000
C000
C000
6000
7100
3F80
0E00
ENDCHAR
STARTCHAR D
ENCODING 68
SWIDTH 660 0
DWIDTH 11 0
BBX 9 11 2 0
BITMAP
F800
FE00
C700
C300
C180
C180
C180
C300
C700
FE00
F800
ENDCHAR
STARTCHAR E
ENCODING 69
SWIDTH 540 0
DWIDTH 9 0
BBX 7 11 1 0
BITMAP
FE
FE
C0
C0
FC
FC
C0
C0
C0
FE
FE
ENDCHAR
STARTCHAR F
ENCODING 70
SWIDTH 540 0
DWIDTH 9 0
BBX 7 11 1 0
BITMAP
FE
FE
C0
C0
FC
FC
C0
C0
C0
C0
C0
ENDCHAR
STARTCHAR G
ENCODING 71
SWIDTH 720 0
DWIDTH 12 0
BBX 10 11 1 0
BITMAP
0F80
3FC0
7080
6000
C000
C7C0
C7C0
60C0
70C0
3FC0
0FC0
ENDCHAR
STARTCHAR H
ENCODING 72
SWIDTH 720 0
DWIDTH 12 0
BBX 9 11 1 0
BITMAP
C180
C180
C180
C180
FF80
FF80
C180
C180
C180
C180
C180
ENDCHAR
STARTCHAR I
ENCODING 73
SWIDTH 360 0
DWIDTH 6 0
BBX 2 11 2 0
BITMAP
C0
C0
C0
C0
C0
C0
C0
C0
C0
C0
C0
ENDCHAR
STARTCHAR J
ENCODING 74
SWIDTH 540 0
DWIDTH 9 0
BBX 6 11 1 0
BITMAP
0C
0C
0C
0C
0C
0C
0C
8C
CC
FC
78
ENDCHAR
STARTCHAR K
ENCODING 75
SWIDTH 600 0
DWIDTH 10 0
BBX 9 11 1 0
BITMAP
C300
C600
CC00
D800
F000
F000
F800
DC00
CE00
C700
C380
ENDCHAR
STARTCHAR L
ENCODING 76
SWIDTH 480 0
DWIDTH 8 0
BBX 7 11 1 0
BITMAP
C0
C0
C0
C0
C0
C0
C0
C0
C0
FE
FE
ENDCHAR
STARTCHAR M
ENCODING 77
SWIDTH 840 0
DWIDTH 14 0
BBX 12 11 1 0
BITMAP
C030
E070
E070
F0F0
F0F0
D9B0
D9B0
CF30
CF30
C630
C630
ENDCHAR
STARTCHAR N
ENCODING 78
SWIDTH 660 0
DWIDTH 11 0
BBX 9 11 1 0
BITMAP
C180
E180
F180
F180
D980
DD80
CD80
C780
C780
C380
C180
ENDCHAR
STARTCHAR O
ENCODING 79
SWIDTH 780 0
DWIDTH 13 0
BBX 11 11 1 0
BITMAP
0E00
3F80
71C0
60C0
C060
C060
C060
60C0
71C0
3F80
0E00
ENDCHAR
STARTCHAR P
ENCODING 80
SWIDTH 600 0
DWIDTH 10 0
BBX 8 11 2 0
BITMAP
F8
FE
C6
C3
C3
C6
FE
F8
C0
C0
C0
ENDCHAR
STARTCHAR Q
ENCODING 81
SWIDTH 780 0
DWIDTH 13 0
BBX 12 11 1 0
BITMAP
0E00
3F80
71C0
60C0
C060
CE60
DF60
73C0
71C0
3FE0
0E70
ENDCHAR
STARTCHAR R
ENCODING 82
SWIDTH 660 0
DWIDTH 11 0
BBX 9 11 2 0
BITMAP
FC00
FE00
C600
C600
C600
FC00
F800
DC00
CE00
C700
C380
ENDCHAR
STARTCHAR S
ENCODING 83
SWIDTH 600 0
DWIDTH 10 0
BBX 9 11 0 0
BITMAP
1E00
3F00
6100
7000
3E00
0F00
0380
4180
E180
7F00
3E00
ENDCHAR
STARTCHAR T
ENCODING 84
SWIDTH 540 0
DWIDTH 9 0
BBX 8 11 0 0
BITMAP
FF
FF
18
18
18
18
18
18
18
18
18
ENDCHAR
STARTCHAR U
ENCODING 85
SWIDTH 660 0
DWIDTH 11 0
BBX 9 11 1 0
BITMAP
C180
C180
C180
C180
C180
C180
C180
C180
E380
7F00
3E00
ENDCHAR
STARTCHAR V
ENCODING 86
SWIDTH 660 0
DWIDTH 11 0
BBX 10 11 1 0
BITMAP
C0C0
E0C0
6180
6180
7180
3300
3300
3E00
1E00
1C00
0C00
ENDCHAR
STARTCHAR W
ENCODING 87
SWIDTH 900 0
DWIDTH 15 0
BBX 14 11 1 0
BITMAP
C00C
C30C
C30C
6318
6398
6798
37B0
36F0
3CF0
1C60
1860
ENDCHAR
STARTCHAR X
ENCODING 88
SWIDTH 660 0
DWIDTH 11 0
BBX 9 11 1 0
BITMAP
C180
E380
6300
3600
3E00
1C00
3E00
3600
6300
E380
C180
ENDCHAR
STARTCHAR Y
ENCODING 89
SWIDTH 660 0
DWIDTH 11 0
BBX 10 11 1 0
BITMAP
E0C0
6180
7180
3300
1E00
1E00
0C00
0C00
0C00
0C00
0C00
ENDCHAR
STARTCHAR Z
ENCODING 90
SWIDTH 720 0
DWIDTH 12 0
BBX 9 11 2 0
BITMAP
7F80
FF00
0700
0600
0C00
1C00
1800
3000
7000
7F80
FF80
ENDCHAR
STARTCHAR bracketleft
ENCODING 91
SWIDTH 480 0
DWIDTH 8 0
BBX 4 15 3 -3
BITMAP
F0
F0
C0
C0
C0
C0
C0
C0
C0
C0
C0
C0
C0
F0
F0
ENDCHAR
STARTCHAR backslash
ENCODING 92
SWIDTH 480 0
DWIDTH 8 0
BBX 8 13 0 -2
BITMAP
C0
C0
60
60
30
30
18
18
0C
0C
06
06
03
ENDCHAR
STARTCHAR bracketright
ENCODING 93
SWIDTH 480 0
DWIDTH 8 0
BBX 4 15 1 -3
BITMAP
F0
F0
30
30
30
30
30
30
30
30
30
30
30
F0
F0
ENDCHAR
STARTCHAR asciicircum
ENCODING 94
SWIDTH 780 0
DWIDTH 13 0
BBX 9 4 2 7
BITMAP
1C00
3600
6300
C180
ENDCHAR
STARTCHAR underscore
ENCODING 95
SWIDTH 660 0
DWIDTH 11 0
BBX 11 1 0 -3
BITMAP
FFE0
ENDCHAR
STARTCHAR a
ENCODING 97
SWIDTH 540 0
DWIDTH 9 0
BBX 7 8 1 0
BITMAP
7C
6E
16
7E
E6
C6
FE
76
ENDCHAR
STARTCHAR b
ENCODING 98
SWIDTH 600 0
DWIDTH 10 0
BBX 8 11 1 0
BITMAP
C0
C0
C0
DC
FE
E7
C3
C3
E7
FE
DC
ENDCHAR
STARTCHAR c
ENCODING 99
SWIDTH 540 0
DWIDTH 9 0
BBX 7 8 1 0
BITMAP
3C
7E
E4
C0
C0
E4
7E
3C
ENDCHAR
STARTCHAR d
ENCODING 100
SWIDTH 600 0
DWIDTH 10 0
BBX 8 11 1 0
BITMAP
03
03
03
3B
7F
E7
C3
C3
E7
7F
3B
ENDCHAR
STARTCHAR e
ENCODING 101
SWIDTH 540 0
DWIDTH 9 0
BBX 7 8 1 0
BITMAP
3C
7E
C6
CE
FC
E0
FE
3C
ENDCHAR
STARTCHAR f
ENCODING 102
SWIDTH 480 0
DWIDTH 8 0
BBX 8 11 0 0
BITMAP
1E
3B
30
7E
FC
30
30
30
30
30
30
ENDCHAR
STARTCHAR g
ENCODING 103
SWIDTH 600 0
DWIDTH 10 0
BBX 8 12 1 -4
BITMAP
1F
7F
63
C3
C3
C7
7F
3B
03
07
7E
3C
ENDCHAR
STARTCHAR h
ENCODING 104
SWIDTH 540 0
DWIDTH 9 0
BBX 7 12 1 0
BITMAP
C0
C0
C0
C0
DC
FE
E6
C6
C6
C6
C6
C6
ENDCHAR
STARTCHAR i
ENCODING 105
SWIDTH 360 0
DWIDTH 6 0
BBX 2 12 2 0
BITMAP
C0
C0
00
00
C0
C0
C0
C0
C0
C0
C0
C0
ENDCHAR
STARTCHAR j
ENCODING 106
SWIDTH 360 0
DWIDTH 6 0
BBX 5 15 -1 -3
BITMAP
18
18
00
00
08
18
18
18
18
18
18
18
18
F8
70
ENDCHAR
STARTCHAR k
ENCODING 107
SWIDTH 540 0
DWIDTH 9 0
BBX 8 11 1 0
BITMAP
C0
C0
C0
C6
CE
DC
F8
F8
DC
CE
C7
ENDCHAR
STARTCHAR l
ENCODING 108
SWIDTH 420 0
DWIDTH 7 0
BBX 5 11 2 0
BITMAP
C0
C0
C0
C0
C0
C0
C0
C0
C8
F8
70
ENDCHAR
STARTCHAR m
ENCODING 109
SWIDTH 840 0
DWIDTH 14 0
BBX 12 8 1 0
BITMAP
DCE0
FFF0
E730
C630
C630
C630
C630
C630
ENDCHAR
STARTCHAR n
ENCODING 110
SWIDTH 540 0
DWIDTH 9 0
BBX 7 8 1 0
BITMAP
DC
FE
E6
C6
C6
C6
C6
C6
ENDCHAR
STARTCHAR o
ENCODING 111
SWIDTH 600 0
DWIDTH 10 0
BBX 8 8 1 0
BITMAP
3C
7E
E7
C3
C3
E7
7E
3C
ENDCHAR
STARTCHAR p
ENCODING 112
SWIDTH 600 0
DWIDTH 10 0
BBX 8 11 1 -3
BITMAP
DC
FE
E7
C3
C3
E7
FE
DC
C0
C0
C0
ENDCHAR
STARTCHAR q
ENCODING 113
SWIDTH 600 0
DWIDTH 10 0
BBX 8 11 1 -3
BITMAP
3B
7F
E7
C3
C3
E7
7F
3B
03
03
03
ENDCHAR
STARTCHAR r
ENCODING 114
SWIDTH 420 0
DWIDTH 7 0
BBX 6 8 1 0
BITMAP
DC
FC
E0
C0
C0
C0
C0
C0
ENDCHAR
STARTCHAR s
ENCODING 115
SWIDTH 540 0
DWIDTH 9 0
BBX 8 8 1 0
BITMAP
3C
6E
60
7C
1E
87
EE
7C
ENDCHAR
STARTCHAR t
ENCODING 116
SWIDTH 480 0
DWIDTH 8 0
BBX 7 11 0 0
BITMAP
10
30
30
7E
FC
30
30
30
32
3E
1C
ENDCHAR
STARTCHAR u
ENCODING 117
SWIDTH 540 0
DWIDTH 9 0
BBX 7 8 1 0
BITMAP
C6
C6
C6
C6
C6
CE
FE
76
ENDCHAR
STARTCHAR v
ENCODING 118
SWIDTH 600 0
DWIDTH 10 0
BBX 9 8 0 0
BITMAP
C180
6180
6300
3300
3600
1E00
1C00
0C00
ENDCHAR
STARTCHAR w
ENCODING 119
SWIDTH 900 0
DWIDTH 15 0
BBX 14 8 0 0
BITMAP
C30C
C30C
6798
6798
35B0
3CF0
1CE0
1860
ENDCHAR
STARTCHAR x
ENCODING 120
SWIDTH 600 0
DWIDTH 10 0
BBX 8 8 1 0
BITMAP
C3
E7
76
3C
3C
6E
E7
C3
ENDCHAR
STARTCHAR y
ENCODING 121
SWIDTH 540 0
DWIDTH 9 0
BBX 9 11 0 -3
BITMAP
C180
6180
6180
3300
3300
1E00
1E00
0C00
1800
3800
7000
ENDCHAR
STARTCHAR z
ENCODING 122
SWIDTH 540 0
DWIDTH 9 0
BBX 8 8 1 0
BITMAP
FE
FE
0C
18
30
60
FF
FF
ENDCHAR
STARTCHAR braceleft
ENCODING 123
SWIDTH 480 0
DWIDTH 8 0
BBX 6 15 1 -3
BITMAP
1C
30
30
30
30
30
30
C0
30
30
30
30
30
30
1C
ENDCHAR
STARTCHAR bar
ENCODING 124
SWIDTH 480 0
DWIDTH 8 0
BBX 2 16 3 -4
BITMAP
C0
C0
C0
C0
C0
C0
C0
C0
C0
C0
C0
C0
C0
C0
C0
C0
ENDCHAR
STARTCHAR braceright
ENCODING 125
SWIDTH 480 0
DWIDTH 8 0
BBX 6 15 1 -3
BITMAP
E0
30
30
30
30
30
30
0C
30
30
30
30
30
30
E0
ENDCHAR
STARTCHAR Euro
ENCODING 164
SWIDTH 720 0
DWIDTH 12 0
BBX 10 11 1 0
BITMAP
0F00
3F80
3080
6000
FF00
6000
FE00
6040
30C0
3F80
0F00
ENDCHAR
STARTCHAR degree
ENCODING 176
SWIDTH 480 0
DWIDTH 8 0
BBX 6 5 1 6
BITMAP
78
CC
CC
CC
78
ENDCHAR
STARTCHAR Agrave
ENCODING 192
SWIDTH 660 0
DWIDTH 11 0
BBX 10 15 1 0
BITMAP
1800
0C00
0000
0000
0C00
1C00
1E00
1E00
3300
3300
6180
7F80
7FC0
C0C0
C0C0
ENDCHAR
STARTCHAR Acircumflex
ENCODING 194
SWIDTH 660 0
DWIDTH 11 0
BBX 10 15 1 0
BITMAP
1C00
3600
0000
0000
0C00
1C00
1E00
1E00
3300
3300
6180
7F80
7FC0
C0C0
C0C0
ENDCHAR
STARTCHAR Ccedilla
ENCODING 199
SWIDTH 600 0
DWIDTH 10 0
BBX 8 14 1 -3
BITMAP
3E
7F
E3
C0
C0
C0
C0
C0
E3
7F
3E
0C
3C
38
ENDCHAR
STARTCHAR Egrave
ENCODING 200
SWIDTH 540 0
DWIDTH 9 0
BBX 7 15 1 0
BITMAP
30
18
00
00
FE
FE
C0
C0
FC
FC
C0
C0
C0
FE
FE
ENDCHAR
STARTCHAR Eacute
ENCODING 201
SWIDTH 540 0
DWIDTH 9 0
BBX 7 15 1 0
BITMAP
18
30
00
00
FE
FE
C0
C0
FC
FC
C0
C0
C0
FE
FE
ENDCHAR
STARTCHAR Ecircumflex
ENCODING 202
SWIDTH 540 0
DWIDTH 9 0
BBX 7 15 1 0
BITMAP
38
6C
00
00
FE
FE
C0
C0
FC
FC
C0
C0
C0
FE
FE
ENDCHAR
STARTCHAR Edieresis
ENCODING 203
SWIDTH 540 0
DWIDTH 9 0
BBX 7 15 1 0
BITMAP
6C
6C
00
00
FE
FE
C0
C0
FC
FC
C0
C0
C0
FE
FE
ENDCHAR
STARTCHAR Icircumflex
ENCODING 206
SWIDTH 420 0
DWIDTH 7 0
BBX 5 15 1 0
BITMAP
70
D8
00
00
60
60
60
60
60
60
60
60
60
60
60
ENDCHAR
STARTCHAR Idieresis
ENCODING 207
SWIDTH 360 0
DWIDTH 6 0
BBX 5 15 1 0
BITMAP
D8
D8
00
00
60
60
60
60
60
60
60
60
60
60
60
ENDCHAR
STARTCHAR Ocircumflex
ENCODING 212
SWIDTH 720 0
DWIDTH 12 0
BBX 10 15 1 0
BITMAP
1C00
3600
0000
0000
1E00
7F80
6180
C0C0
C0C0
C0C0
C0C0
C0C0
6180
7F80
1E00
ENDCHAR
STARTCHAR Ugrave
ENCODING 217
SWIDTH 660 0
DWIDTH 11 0
BBX 9 15 1 0
BITMAP
1800
0C00
0000
0000
C180
C180
C180
C180
C180
C180
C180
C180
E380
7F00
3E00
ENDCHAR
STARTCHAR Ucircumflex
ENCODING 219
SWIDTH 660 0
DWIDTH 11 0
BBX 9 15 1 0
BITMAP
1C00
3600
0000
0000
C180
C180
C180
C180
C180
C180
C180
C180
E380
7F00
3E00
ENDCHAR
STARTCHAR Udieresis
ENCODING 220
SWIDTH 660 0
DWIDTH 11 0
BBX 9 15 1 0
BITMAP
3600
3600
0000
0000
C180
C180
C180
C180
C180
C180
C180
C180
E380
7F00
3E00
ENDCHAR
STARTCHAR agrave
ENCODING 224
SWIDTH 540 0
DWIDTH 9 0
BBX 7 12 1 0
BITMAP
30
18
00
00
7C
6E
16
7E
E6
C6
FE
76
ENDCHAR
STARTCHAR acircumflex
ENCODING 226
SWIDTH 540 0
DWIDTH 9 0
BBX 7 12 1 0
BITMAP
38
6C
00
00
7C
6E
16
7E
E6
C6
FE
76
ENDCHAR
STARTCHAR ccedilla
ENCODING 231
SWIDTH 540 0
DWIDTH 9 0
BBX 7 11 1 -3
BITMAP
3C
7E
E4
C0
C0
E6
7E
3C
0C
7C
38
ENDCHAR
STARTCHAR egrave
ENCODING 232
SWIDTH 540 0
DWIDTH 9 0
BBX 7 12 1 0
BITMAP
30
18
00
00
3C
7E
C6
CE
FC
E0
7E
3C
ENDCHAR
STARTCHAR eacute
ENCODING 233
SWIDTH 540 0
DWIDTH 9 0
BBX 7 12 1 0
BITMAP
0C
18
00
00
3C
7E
C6
CE
FC
E0
7E
3C
ENDCHAR
STARTCHAR ecircumflex
ENCODING 234
SWIDTH 540 0
DWIDTH 9 0
BBX 7 12 1 0
BITMAP
38
6C
00
00
3C
7E
C6
CE
FC
E0
7E
3C
ENDCHAR
STARTCHAR edieresis
ENCODING 235
SWIDTH 540 0
DWIDTH 9 0
BBX 7 12 1 0
BITMAP
6C
6C
00
00
3C
7E
C6
CE
FC
E0
7E
3C
ENDCHAR
STARTCHAR icircumflex
ENCODING 238
SWIDTH 360 0
DWIDTH 6 0
BBX 5 12 1 0
BITMAP
70
D8
00
00
60
60
60
60
60
60
60
60
ENDCHAR
STARTCHAR idieresis
ENCODING 239
SWIDTH 360 0
DWIDTH 6 0
BBX 5 12 1 0
BITMAP
D8
D8
00
00
60
60
60
60
60
60
60
60
ENDCHAR
STARTCHAR ocircumflex
ENCODING 244
SWIDTH 600 0
DWIDTH 10 0
BBX 8 12 1 0
BITMAP
1C
36
00
00
3C
7E
E7
C3
C3
E7
7E
3C
ENDCHAR
STARTCHAR ugrave
ENCODING 249
SWIDTH 540 0
DWIDTH 9 0
BBX 7 12 1 0
BITMAP
30
18
00
00
C6
C6
C6
C6
C6
CE
FE
76
ENDCHAR
STARTCHAR ucircumflex
ENCODING 251
SWIDTH 540 0
DWIDTH 9 0
BBX 7 12 1 0
BITMAP
38
6C
00
00
C6
C6
C6
C6
C6
CE
FE
76
ENDCHAR
STARTCHAR udieresis
ENCODING 252
SWIDTH 540 0
DWIDTH 9 0
BBX 7 12 1 0
BITMAP
6C
6C
00
00
C6
C6
C6
C6
C6
CE
FE
76
ENDCHAR
ENDFONT
